<?xml version="1.0" encoding="UTF-8"?>
<svg id="Camada_1" data-name="Camada 1" xmlns="http://www.w3.org/2000/svg" viewBox="0 0 1920 289.75">
  <defs>
    <style>
      .cls-1 {
        fill: #f0eff9;
      }
    </style>
  </defs>
  <g>
    <path class="cls-1" d="m359.9,149.81v27.87c0,1.57.05,2.68.14,3.33h62.82c4.71,0,9.13-.85,13.24-2.57,4.11-1.71,7.14-4.27,9.08-7.7l2.64.97-9.15,25.38h-2.5c-1.2-1.3-2.61-2.15-4.23-2.57-1.62-.42-4.28-.62-7.97-.62h-89.58v-2.36c3.51-1.2,5.94-2.75,7.28-4.65,1.34-1.89,2.01-4.97,2.01-9.22v-65.87c0-4.25-.65-7.33-1.94-9.22-1.3-1.89-3.74-3.49-7.35-4.78v-2.36h85.28c4.07-.09,6.96-.35,8.67-.76,1.71-.42,3.21-1.22,4.51-2.43h2.5l5.13,24.55-2.22.55c-1.48-3.33-3.56-5.59-6.24-6.8-2.68-1.2-7.77-1.94-15.25-2.22h-56.72c-.09.46-.14,1.2-.14,2.22v27.18h46.73c3.79-.09,6.56-.83,8.32-2.22,1.76-1.39,3.28-3.84,4.58-7.35h2.22v30.92h-2.22c-1.3-3.42-2.82-5.8-4.58-7.14-1.76-1.34-4.53-2.06-8.32-2.15h-46.73Z"/>
    <path class="cls-1" d="m542.94,106.82c-24.68,0-37.03,4.62-37.03,13.87,0,3.33,1.59,5.92,4.78,7.77,3.19,1.85,7.33,3.1,12.41,3.74,5.08.65,10.68,1.16,16.78,1.53,6.1.37,12.22,1.04,18.37,2.01,6.15.97,11.76,2.41,16.85,4.3,5.08,1.9,9.22,4.97,12.41,9.22,3.19,4.25,4.78,9.57,4.78,15.95,0,20.43-16.97,30.65-50.89,30.65-18.3,0-33.75-2.54-46.32-7.63l-9.57-23.02,2.36-1.39c5.36,5.82,12.73,10.49,22.12,14.01,9.38,3.52,19.76,5.27,31.13,5.27,23.57,0,35.36-5.36,35.36-16.09,0-3.97-1.59-7.12-4.78-9.43-3.19-2.31-7.33-3.9-12.41-4.78-5.09-.88-10.7-1.57-16.85-2.08-6.15-.51-12.32-1.18-18.51-2.01-6.2-.83-11.83-2.06-16.92-3.68-5.09-1.62-9.22-4.34-12.41-8.18-3.19-3.84-4.78-8.67-4.78-14.49,0-18.95,17.7-28.43,53.11-28.43,6.29,0,12.16.44,17.61,1.32,5.45.88,9.68,1.76,12.69,2.64,3,.88,4.65,1.32,4.92,1.32,1.39,0,2.59-1.02,3.61-3.05h2.22l5.27,24.13-2.5.83c-2.31-3.33-5.5-6.1-9.57-8.32-8.14-3.97-19.55-5.96-34.25-5.96Z"/>
    <path class="cls-1" d="m646.81,111.82c0-4.25-.65-7.33-1.94-9.22-1.3-1.89-3.74-3.49-7.35-4.78v-2.36h71.14c13.59,0,24.01,2.63,31.27,7.9,7.26,5.27,10.89,12.71,10.89,22.33s-3.63,17.38-10.89,22.74c-7.26,5.36-17.68,8.04-31.27,8.04h-45.62v21.22c0,4.16.69,7.21,2.08,9.15,1.39,1.94,3.88,3.52,7.49,4.71v2.36h-35.08v-2.36c3.51-1.2,5.94-2.75,7.28-4.65,1.34-1.89,2.01-4.97,2.01-9.22v-65.87Zm16.23,31.76h44.51c8.78,0,15.3-1.59,19.55-4.78,4.25-3.19,6.38-7.56,6.38-13.1,0-11.37-8.65-17.06-25.93-17.06h-44.38c-.09.65-.14,1.71-.14,3.19v31.76Z"/>
    <path class="cls-1" d="m803.65,168.95l48.67-75.02h2.91l49.09,75.02c5.45,8.23,9.48,13.71,12.06,16.43,2.59,2.73,5.32,4.78,8.18,6.17v2.36h-34.95v-2.36c3.51-1.75,5.27-3.65,5.27-5.69,0-1.11-.46-2.4-1.39-3.88l-7.35-11.37h-65.87l-7.07,11.37c-1.02,1.76-1.53,3.19-1.53,4.3,0,1.94,1.53,3.7,4.58,5.27v2.36h-32.59v-2.36c2.86-1.11,5.48-2.96,7.83-5.55,2.36-2.59,6.4-8.27,12.13-17.06Zm48.95-50.48l-23.99,38.69h48.81l-24.82-38.69Z"/>
    <path class="cls-1" d="m970.75,111.82c0-4.25-.65-7.33-1.94-9.22-1.3-1.89-3.74-3.49-7.35-4.78v-2.36h74.19c12.39,0,21.84,2.59,28.36,7.77,6.52,5.18,9.78,12.62,9.78,22.33,0,18.03-10.54,27.87-31.62,29.54l14.98,17.75c5.92,7.03,10.19,11.67,12.83,13.94,2.64,2.27,5.34,3.86,8.11,4.78v2.36h-31.06v-2.36c1.02-.46,1.69-.92,2.01-1.39.32-.46.3-1.2-.07-2.22-.37-1.02-1.11-2.31-2.22-3.88-1.11-1.57-2.82-3.7-5.13-6.38l-18.58-22.47h-36.06v22.47c0,4.16.69,7.21,2.08,9.15,1.39,1.94,3.88,3.52,7.49,4.71v2.36h-35.08v-2.36c3.51-1.2,5.94-2.75,7.28-4.65,1.34-1.89,2.01-4.97,2.01-9.22v-65.87Zm61.02-3.05h-44.65c-.09.37-.14.97-.14,1.8v31.34h44.79c8.6,0,14.86-1.32,18.79-3.95,3.93-2.64,5.89-6.77,5.89-12.41,0-11.19-8.23-16.78-24.68-16.78Z"/>
    <path class="cls-1" d="m1136.05,95.45h77.52c5.92-.09,9.89-1.15,11.93-3.19h2.5l5.13,24.55-2.22.55c-1.02-2.31-2.22-4.07-3.61-5.27-1.39-1.2-3.51-2.08-6.38-2.63h-38.27v71.83c.28,2.87,1.11,5.04,2.5,6.52,1.39,1.48,3.65,2.73,6.79,3.74v2.36h-34.95v-2.36c3.51-1.2,5.92-2.75,7.21-4.65,1.29-1.89,1.94-4.97,1.94-9.22v-68.23h-38.83c-2.87.55-4.99,1.43-6.38,2.63-1.39,1.2-2.54,2.96-3.47,5.27l-2.36-.55,5.27-24.55h2.5c1.2,1.2,2.68,2.01,4.44,2.43,1.76.42,4.67.67,8.74.76Z"/>
    <path class="cls-1" d="m1284.15,168.95l48.67-75.02h2.91l49.09,75.02c5.45,8.23,9.48,13.71,12.06,16.43,2.59,2.73,5.32,4.78,8.18,6.17v2.36h-34.95v-2.36c3.51-1.75,5.27-3.65,5.27-5.69,0-1.11-.46-2.4-1.39-3.88l-7.35-11.37h-65.87l-7.07,11.37c-1.02,1.76-1.53,3.19-1.53,4.3,0,1.94,1.53,3.7,4.58,5.27v2.36h-32.59v-2.36c2.86-1.11,5.48-2.96,7.83-5.55,2.36-2.59,6.4-8.27,12.13-17.06Zm48.95-50.48l-23.99,38.69h48.81l-24.82-38.69Z"/>
    <path class="cls-1" d="m1450.28,93.93h2.91l95.96,72.25v-55.61c-.09-3.79-.81-6.56-2.15-8.32-1.34-1.76-3.72-3.23-7.14-4.44v-2.36h34.95v2.36c-3.61,1.3-6.08,2.89-7.42,4.78-1.34,1.9-2.01,4.97-2.01,9.22v84.04h-2.91l-95.96-72.25v54.08c0,4.16.69,7.21,2.08,9.15,1.39,1.94,3.88,3.52,7.49,4.71v2.36h-35.08v-2.36c3.51-1.2,5.94-2.75,7.28-4.65,1.34-1.89,2.01-4.97,2.01-9.22v-83.76Z"/>
    <path class="cls-1" d="m1749.05,117.36c6.15,7.77,9.22,16.97,9.22,27.6s-3.07,19.83-9.22,27.6c-6.15,7.77-14.42,13.59-24.82,17.47-10.4,3.88-22.3,5.82-35.71,5.82s-25.33-1.94-35.78-5.82c-10.45-3.88-18.77-9.71-24.96-17.47-6.2-7.77-9.29-16.96-9.29-27.6s3.1-19.83,9.29-27.6c6.19-7.77,14.51-13.61,24.96-17.54,10.45-3.93,22.37-5.89,35.78-5.89s25.31,1.97,35.71,5.89c10.4,3.93,18.67,9.78,24.82,17.54Zm-8.67,27.6c0-11.37-4.85-20.34-14.56-26.9-9.71-6.56-22.14-9.85-37.3-9.85s-27.83,3.28-37.44,9.85c-9.62,6.57-14.42,15.53-14.42,26.9s4.83,20.11,14.49,26.76c9.66,6.66,22.12,9.98,37.37,9.98s27.6-3.33,37.3-9.98c9.71-6.66,14.56-15.58,14.56-26.76Z"/>
    <path class="cls-1" d="m1857.01,106.82c-24.68,0-37.03,4.62-37.03,13.87,0,3.33,1.59,5.92,4.78,7.77,3.19,1.85,7.33,3.1,12.41,3.74,5.08.65,10.68,1.16,16.78,1.53,6.1.37,12.22,1.04,18.37,2.01,6.15.97,11.76,2.41,16.85,4.3,5.08,1.9,9.22,4.97,12.41,9.22,3.19,4.25,4.78,9.57,4.78,15.95,0,20.43-16.97,30.65-50.89,30.65-18.3,0-33.75-2.54-46.32-7.63l-9.57-23.02,2.36-1.39c5.36,5.82,12.73,10.49,22.12,14.01,9.38,3.52,19.76,5.27,31.13,5.27,23.57,0,35.36-5.36,35.36-16.09,0-3.97-1.59-7.12-4.78-9.43-3.19-2.31-7.33-3.9-12.41-4.78-5.09-.88-10.7-1.57-16.85-2.08-6.15-.51-12.32-1.18-18.51-2.01-6.2-.83-11.83-2.06-16.92-3.68-5.09-1.62-9.22-4.34-12.41-8.18-3.19-3.84-4.78-8.67-4.78-14.49,0-18.95,17.7-28.43,53.11-28.43,6.29,0,12.16.44,17.61,1.32,5.45.88,9.68,1.76,12.69,2.64,3,.88,4.65,1.32,4.92,1.32,1.39,0,2.59-1.02,3.61-3.05h2.22l5.27,24.13-2.5.83c-2.31-3.33-5.5-6.1-9.57-8.32-8.14-3.97-19.55-5.96-34.25-5.96Z"/>
  </g>
  <g>
    <path class="cls-1" d="m126.23,229.36l-1.93-1.93c-3.16,0-7.06-2.26-11.72-6.77l-13.75-13.75c14.01-14.71,67.67-69.13,124.27-101.06l57.2-93.11-93.11,57.2c-31.93,56.61-86.35,110.27-101.06,124.27l-13.75-13.75c-4.52-4.66-6.77-8.56-6.77-11.72l-1.93-1.93-23.01,15.05,1.29,2.15c2.58-1,4.87-1.43,6.88-1.29,2.01.14,4.34,1.11,6.99,2.9l19.19,19.19-41.64,41.64c-2.44,2.01-4.77,3.05-6.99,3.12-2.22.07-4.94-.72-8.17-2.37l-1.83,1.83,13.81,13.81,13.81,13.81,1.83-1.83c-1.65-3.23-2.44-5.95-2.37-8.17.07-2.22,1.11-4.55,3.12-6.99l41.64-41.64,19.19,19.19c1.79,2.65,2.76,4.98,2.9,6.99.14,2.01-.29,4.3-1.29,6.88l2.15,1.29,15.05-23.01Z"/>
    <g>
      <path class="cls-1" d="m230.83,113.87l-2.43,1.37c-47.95,27.05-93.79,70.65-114.42,91.54l6.23,6.23c2.58,2.51,4.12,3.36,4.65,3.61h3.9l11.3,11.3-24.93,38.11c11.63,7,19.7,10.61,19.7,10.61,0,0,58.9-26.32,87.92-74.91,16.84-28.19,17.09-68.87,14.33-98.07l-6.26,10.2Z"/>
      <path class="cls-1" d="m65.09,152.95l11.3,11.3v3.9c.25.53,1.13,2.09,3.73,4.77l6.11,6.11c20.9-20.64,64.5-66.48,91.54-114.42l1.37-2.43,6.58-4.04c-14.67-7.2-32.05-19.42-50.89-39.97-54.47,59.39-96.7,49.26-96.7,49.26,0,0-13.54,57.36-2.58,104.83l29.53-19.32Z"/>
    </g>
  </g>
</svg>