<?xml version="1.0" encoding="UTF-8"?>
<svg id="Camada_1" data-name="Camada 1" xmlns="http://www.w3.org/2000/svg" viewBox="0 0 1920 472.5">
  <defs>
    <style>
      .cls-1 {
        fill: #fff800;
      }
    </style>
  </defs>
  <path class="cls-1" d="m95.03,177.81v-94.96c0-6.88-5.58-12.46-12.46-12.46h-1.12c-6.88,0-12.46,5.58-12.46,12.46v307.72c0,6.88,5.58,12.46,12.46,12.46h1.12c6.88,0,12.46-5.58,12.46-12.46v-104.32h-33.21v-60.56h96.4v174.48c0,35.02-28.39,63.41-63.41,63.41h-25.6c-35.02,0-63.41-28.39-63.41-63.41V73.24c0-35.02,28.39-63.41,63.41-63.41h25.6c35.02,0,63.41,28.39,63.41,63.41v104.57h-63.19Z"/>
  <path class="cls-1" d="m309.94,396.02v63.19h-128.04V14.2h63.19v381.82h64.85Z"/>
  <path class="cls-1" d="m495.77,459.21h-60.18l-6.46-85.96h-34.35l-6.5,85.96h-60.18L374.33,14.2h75.23l46.21,445.01Zm-71.1-149.16l-12.72-173.55-12.72,173.55h25.44Z"/>
  <path class="cls-1" d="m599.38,14.2c49.21,0,68.49,29.09,68.49,64.98v315.05c0,35.89-19.29,64.98-68.49,64.98h-84.37V14.2h84.37Zm-7.12,381.88c6.86,0,12.42-5.56,12.42-12.42V89.55c0-6.86-5.56-12.42-12.42-12.42h-14.06v318.96h14.06Z"/>
  <path class="cls-1" d="m941.94,459.21h-60.18l-6.46-85.96h-34.35l-6.5,85.96h-60.18L820.5,14.2h75.23l46.21,445.01Zm-71.1-149.16l-12.72-173.55-12.72,173.55h25.44Z"/>
  <path class="cls-1" d="m1045.55,14.2c49.21,0,68.49,29.09,68.49,64.98v315.05c0,35.89-19.29,64.98-68.49,64.98h-84.37V14.2h84.37Zm-7.12,381.88c6.86,0,12.42-5.56,12.42-12.42V89.55c0-6.86-5.56-12.42-12.42-12.42h-14.06v318.96h14.06Z"/>
  <path class="cls-1" d="m691.11,459.21V14.2h63.19v445.01h-63.19Z"/>
  <path class="cls-1" d="m1589.43,378.95v79.35h-63.19v-67.43c0-10.55-8.55-19.1-19.1-19.1h-7.14v86.52h-63.19V13.6h102.76c27.53,0,49.85,22.32,49.85,49.85v239.49c0,21.29-17.26,38.55-38.55,38.55h1.1c20.68,0,37.45,16.77,37.46,37.45Zm-75.64-302.16h-13.79v234.42h11.28c8.26,0,14.95-6.69,14.95-14.95V89.24c0-6.87-5.57-12.44-12.44-12.44Z"/>
  <path class="cls-1" d="m1676.74,77.39v127.72h64.85v63.19h-64.85v127.72h64.85v63.19h-128.04V14.2h128.04v63.19h-64.85Z"/>
  <path class="cls-1" d="m1914.2,177.81h-63.19v-94.96c0-6.88-5.58-12.46-12.46-12.46h-1.12c-6.88,0-12.46,5.58-12.46,12.46v87.14c0,9.65,3.93,15.27,6.85,18.11l3.1,2.39,54.09,41.73s25.19,16.32,25.19,55.16v112.8c0,35.02-28.39,63.41-63.41,63.41h-25.6c-35.02,0-63.41-28.39-63.41-63.41v-112.8h63.19v103.19c0,6.88,5.58,12.46,12.46,12.46h1.12c6.88,0,12.46-5.58,12.46-12.46v-96.77c-.04-2.1-.66-10.18-7.59-15.53l-59.9-46.21c-24.59-18.97-21.74-46.02-21.74-46.02v-112.8c0-35.02,28.39-63.41,63.41-63.41h25.6c35.02,0,63.41,28.39,63.41,63.41v104.57Z"/>
  <g>
    <path class="cls-1" d="m1383.09,162.71c-34.4-26.87-108.56-49.44-108.56-49.44,0,0-74.17,22.57-108.56,49.44,0,93.51,1.07,195.63-18.27,240.77,45.14,32.25,76.32,54.82,76.32,54.82l13.97-191.33s-45.76,10.53-60.6-18.27c13.43-29.15,86.4-22.57,77.8,37.62l-6.93,48.52c-1.03,7.18,1.99,14.34,7.85,18.62l18.43,13.47,18.43-13.47c5.86-4.28,8.88-11.44,7.85-18.62l-6.93-48.52c-8.6-60.19,64.37-66.77,77.8-37.62-14.84,28.81-60.6,18.27-60.6,18.27l13.97,191.33s31.17-22.57,76.32-54.82c-19.35-45.14-18.27-147.26-18.27-240.77Z"/>
    <path class="cls-1" d="m1298.95,34.37l-24.42-25.45-24.42,25.45c7.07,21.2,6.01,72.8,6.01,72.8l18.42-5.83,18.42,5.83s-1.06-51.6,6.01-72.8Z"/>
  </g>
  <path class="cls-1" d="m1314.78,14.2h-19.01l17.3,15.34s-7.54,20.29-9.93,36.53c33.27,11.6,56.02,47.21,56.02,66.97,10.44,4.06,24.1,12.47,24.1,12.47v-66.32c0-35.89-19.29-64.98-68.49-64.98Z"/>
  <path class="cls-1" d="m1234.68,14.2h19.01l-17.3,15.34s7.54,20.29,9.93,36.53c-33.27,11.6-56.02,47.21-56.02,66.97-10.44,4.06-24.1,12.47-24.1,12.47v-66.32c0-35.89,19.29-64.98,68.49-64.98Z"/>
</svg>