<?xml version="1.0" standalone="no"?>
<!DOCTYPE svg PUBLIC "-//W3C//DTD SVG 20010904//EN"
 "http://www.w3.org/TR/2001/REC-SVG-20010904/DTD/svg10.dtd">
<svg version="1.0" xmlns="http://www.w3.org/2000/svg"
 width="1077.000000pt" height="1077.000000pt" viewBox="0 0 1077.000000 1077.000000"
 preserveAspectRatio="xMidYMid meet">
<metadata>
Created by potrace 1.14, written by Peter Selinger 2001-2017
</metadata>
<g transform="translate(0.000000,1077.000000) scale(0.100000,-0.100000)"
fill="#000000" stroke="none">
<path d="M5200 10429 c-107 -111 -235 -243 -283 -293 -72 -75 -87 -96 -84
-116 3 -14 14 -65 25 -115 21 -89 26 -114 37 -189 4 -21 8 -47 10 -58 2 -10 7
-54 10 -96 4 -42 8 -79 10 -82 2 -3 6 -50 10 -105 4 -55 8 -116 10 -135 7 -77
18 -418 20 -650 2 -135 3 -246 4 -246 1 -1 96 29 213 66 l211 67 61 -19 c34
-11 66 -21 71 -22 6 -1 71 -22 145 -45 74 -24 139 -44 143 -45 4 0 10 139 13
309 5 368 15 606 29 721 2 16 6 59 10 95 3 35 8 87 11 114 15 139 43 295 71
393 8 29 13 57 11 62 -3 8 -158 172 -443 467 l-121 125 -194 -203z"/>
<path d="M4297 10504 c-1 -1 -40 -4 -87 -8 -47 -4 -139 -18 -205 -31 -477 -97
-806 -341 -987 -733 -56 -121 -109 -301 -123 -421 -4 -30 -9 -63 -12 -75 -9
-31 -13 -1787 -5 -1782 216 124 438 240 515 267 20 7 37 15 38 19 3 18 7 52
13 100 17 145 95 348 204 530 243 407 604 728 1007 896 79 33 80 34 77 67 -10
110 -90 422 -168 655 -30 90 -54 165 -52 166 5 4 192 168 271 240 44 39 90 80
104 92 l25 22 -306 -1 c-168 0 -307 -1 -309 -3z"/>
<path d="M5927 10472 c35 -32 97 -88 183 -162 14 -12 60 -53 102 -91 l77 -70
-35 -102 c-63 -186 -153 -503 -168 -592 -2 -16 -10 -56 -16 -88 -6 -33 -9 -61
-6 -64 3 -3 50 -25 104 -48 55 -24 126 -57 158 -75 71 -40 239 -150 276 -182
14 -13 43 -37 65 -55 302 -250 587 -675 667 -998 21 -82 28 -124 28 -165 l0
-35 186 -92 c103 -50 226 -114 275 -142 48 -28 91 -51 97 -51 11 0 11 1640 -1
1725 -4 33 -10 80 -12 105 -8 74 -37 198 -69 294 -68 203 -160 357 -301 500
-117 118 -183 166 -332 241 -163 82 -343 137 -525 161 -30 3 -66 9 -80 11 -14
2 -179 6 -368 8 l-344 3 39 -36z"/>
<path d="M5170 8130 c-113 -39 -212 -72 -220 -74 -26 -7 -450 -166 -555 -208
-177 -71 -408 -169 -493 -209 -46 -21 -86 -39 -88 -39 -7 0 -324 -159 -404
-202 -171 -93 -399 -235 -503 -315 l-39 -29 -3 -990 c-3 -920 -7 -1253 -20
-1659 -9 -275 -21 -570 -30 -715 -3 -41 -7 -118 -10 -170 -8 -134 -16 -237
-40 -505 -3 -27 -7 -70 -10 -95 -3 -25 -7 -63 -10 -85 -2 -22 -6 -60 -9 -85
-3 -25 -8 -67 -12 -95 -3 -27 -7 -61 -9 -75 -2 -14 -6 -45 -10 -70 -3 -25 -8
-56 -10 -70 -3 -14 -7 -38 -9 -55 -10 -59 -35 -201 -46 -255 -6 -30 -14 -66
-16 -79 -30 -148 -140 -518 -174 -580 -10 -19 -9 -25 7 -36 14 -11 181 -131
278 -201 105 -76 374 -268 620 -444 165 -118 305 -218 310 -223 6 -4 80 -58
166 -120 85 -61 175 -126 200 -144 24 -18 77 -55 117 -83 67 -47 72 -49 73
-28 1 13 3 34 4 48 1 14 5 68 9 120 8 119 14 197 21 280 3 36 7 101 10 145 3
44 8 105 10 135 2 30 7 91 10 135 6 83 10 146 20 275 3 41 8 107 10 145 3 39
7 99 10 135 3 36 7 99 10 140 3 41 8 100 10 130 3 30 7 89 10 130 11 163 16
237 20 280 3 25 7 79 10 120 14 217 16 254 20 289 2 21 6 81 10 132 3 52 7
117 10 144 3 28 7 88 10 135 3 47 7 108 10 135 2 28 6 91 10 140 4 50 8 110
10 135 4 42 13 175 20 280 4 62 15 215 20 275 5 63 14 182 20 260 12 177 17
252 21 268 3 20 -1 20 -81 7 -192 -32 -509 -34 -655 -5 -14 3 -35 7 -48 9
-194 39 -359 123 -485 245 -60 58 -137 166 -137 193 0 23 77 128 127 173 81
73 247 159 346 180 15 3 38 7 51 10 104 22 324 27 409 10 15 -3 38 -7 51 -9
178 -31 390 -136 525 -262 148 -136 242 -308 287 -525 25 -119 25 -390 -1
-514 -2 -11 -7 -40 -10 -65 -3 -25 -7 -54 -9 -66 -2 -12 -7 -45 -11 -74 -4
-29 -8 -61 -10 -70 -2 -9 -6 -41 -10 -70 -4 -29 -8 -60 -10 -69 -1 -9 -6 -41
-10 -71 -4 -30 -9 -64 -11 -74 -2 -11 -6 -40 -9 -65 -3 -25 -7 -57 -10 -70 -2
-14 -7 -45 -10 -70 -3 -25 -7 -55 -9 -66 -2 -11 -7 -47 -12 -80 -4 -33 -8 -62
-9 -65 -7 -27 -18 -146 -17 -188 2 -73 43 -183 92 -248 23 -30 78 -82 123
-115 45 -34 93 -69 107 -79 197 -146 277 -203 287 -207 17 -7 466 320 510 371
34 39 67 95 89 151 21 54 26 218 10 305 -10 53 -11 66 -20 145 -4 33 -9 67
-12 75 -2 8 -6 38 -9 65 -3 28 -8 57 -10 65 -2 8 -7 40 -10 70 -3 30 -8 66
-10 80 -3 14 -7 39 -9 55 -2 17 -7 50 -11 75 -4 25 -8 56 -10 70 -4 32 -15
107 -21 141 -4 26 -8 54 -19 144 -3 28 -11 77 -16 110 -9 61 -6 316 5 370 4
17 9 44 12 60 23 114 101 285 175 381 145 189 371 325 624 376 346 70 703 -16
895 -214 37 -38 100 -132 100 -148 0 -6 -16 -36 -36 -67 -114 -178 -312 -306
-564 -364 -183 -43 -530 -46 -734 -8 -69 13 -78 12 -72 -8 3 -10 8 -65 11
-123 2 -58 7 -127 10 -155 7 -79 17 -205 20 -270 2 -33 6 -89 9 -125 3 -36 8
-99 11 -140 6 -100 15 -215 20 -270 2 -25 7 -89 10 -143 3 -53 8 -116 10 -140
2 -23 7 -87 10 -142 4 -55 8 -113 10 -130 2 -16 7 -75 10 -130 3 -55 8 -120
10 -145 2 -25 7 -88 10 -140 4 -52 8 -111 10 -130 2 -19 6 -78 9 -130 4 -52 9
-117 11 -145 2 -27 7 -86 10 -130 8 -124 16 -225 20 -280 3 -27 7 -90 10 -140
3 -49 8 -115 10 -145 3 -30 7 -89 10 -130 7 -105 14 -205 20 -270 3 -30 7 -98
10 -150 4 -52 8 -111 10 -130 2 -19 7 -80 10 -135 4 -55 8 -116 10 -135 3 -30
11 -147 20 -285 2 -22 4 -41 4 -43 1 -3 70 43 106 71 16 12 221 160 245 177
57 40 227 162 240 173 14 11 252 182 325 233 17 11 125 89 240 173 116 83 269
192 340 243 72 50 132 94 135 97 3 4 30 23 60 44 99 68 93 54 59 138 -26 63
-94 272 -104 319 -2 8 -10 42 -19 75 -8 33 -18 76 -21 95 -3 19 -10 51 -15 70
-5 19 -20 98 -34 175 -23 130 -31 175 -41 255 -2 17 -6 43 -9 58 -3 15 -8 48
-11 75 -7 62 -15 133 -20 177 -2 19 -7 60 -10 90 -2 30 -9 100 -15 155 -5 55
-12 132 -15 170 -3 39 -7 95 -10 125 -3 30 -7 93 -10 140 -2 47 -7 117 -10
155 -2 39 -7 126 -10 195 -3 69 -7 170 -10 225 -4 97 -10 293 -21 680 -3 105
-7 663 -9 1240 -2 578 -4 1053 -5 1056 0 11 -212 154 -345 234 -156 94 -476
259 -670 346 -77 34 -168 75 -203 90 -34 16 -65 29 -68 29 -3 0 -25 9 -50 20
-213 98 -1138 430 -1193 430 -9 0 -108 -32 -221 -70z"/>
</g>
</svg>
